<svg width="18" height="26" viewBox="0 0 18 26" fill="none" xmlns="http://www.w3.org/2000/svg">
<path fill-rule="evenodd" clip-rule="evenodd" d="M0.0625 10.4868C0.0625 4.70995 4.06273 0 9.02587 0C13.989 0 17.9892 4.70995 17.9892 10.4868C17.9892 13.2757 17.2988 16.2702 16.0781 18.8573C14.8591 21.4411 13.0779 23.6864 10.8498 24.8852C9.69233 25.508 8.3594 25.508 7.20195 24.8852C4.97378 23.6864 3.19263 21.4411 1.97355 18.8573C0.752966 16.2702 0.0625 13.2757 0.0625 10.4868ZM9.02587 1.76877C4.93696 1.76877 1.59908 5.65708 1.59908 10.4868C1.59908 12.9596 2.2164 15.6658 3.32383 18.0131C4.43277 20.3635 5.99986 22.286 7.85254 23.2829C8.59778 23.6838 9.45396 23.6838 10.1992 23.2829C12.0519 22.286 13.619 20.3635 14.7279 18.0131C15.8354 15.6658 16.4527 12.9596 16.4527 10.4868C16.4527 5.65708 13.1148 1.76877 9.02587 1.76877ZM9.02587 7.66465C7.75297 7.66465 6.721 8.85251 6.721 10.3178C6.721 11.783 7.75297 12.971 9.02587 12.971C10.2988 12.971 11.3307 11.783 11.3307 10.3178C11.3307 8.85251 10.2988 7.66465 9.02587 7.66465ZM5.18442 10.3178C5.18442 7.87564 6.90429 5.89589 9.02587 5.89589C11.1475 5.89589 12.8673 7.87564 12.8673 10.3178C12.8673 12.76 11.1475 14.7397 9.02587 14.7397C6.90429 14.7397 5.18442 12.76 5.18442 10.3178Z" fill="#00FF00"/>
</svg>
