<svg width="59" height="61" viewBox="0 0 59 61" fill="none" xmlns="http://www.w3.org/2000/svg">
<path d="M2.25599 27.9086C1.51316 29.1416 1.08151 30.1567 0.890379 31.1801C0.502134 33.2588 0.763153 35.4107 1.63604 37.3274C2.11853 38.3869 2.89251 39.3596 4.13133 40.5303C5.2569 41.594 6.73882 42.7966 8.69324 44.3633L9.06903 45.3151L9.01485 45.2717C4.48994 41.6479 2.22748 39.836 1.1843 37.5454C0.26669 35.5305 -0.00770623 33.2684 0.400434 31.0831C0.625536 29.8778 1.15572 28.7092 2.04395 27.2934C2.11117 27.4934 2.18187 27.6984 2.25599 27.9086Z" fill="white"/>
<path d="M9.4768 44.991L9.85249 45.9426L10.64 46.5733L10.2644 45.6217L9.4768 44.991Z" fill="white"/>
<path d="M3.29736 26.3153C4.13907 25.1028 5.20824 23.6877 6.53876 21.9273L14.3384 11.6074L14.0276 11.7374C13.8187 11.8248 13.6141 11.9104 13.4139 11.9943L6.14497 21.6119C4.93014 23.2193 3.92492 24.5494 3.11024 25.7041C3.1369 25.7954 3.16461 25.8882 3.1934 25.9825C3.22675 26.0917 3.2614 26.2026 3.29736 26.3153Z" fill="white"/>
<path d="M14.0235 11.1877L14.9479 10.8009L15.5606 9.99023L14.6362 10.377L14.0235 11.1877Z" fill="white"/>
<path d="M2.39056 26.7554C2.50454 26.5827 2.62349 26.4062 2.74747 26.2254C2.80853 26.4228 2.87369 26.6256 2.94293 26.8342C2.82124 27.0155 2.70502 27.1924 2.59414 27.3654C2.52255 27.1567 2.45467 26.9535 2.39056 26.7554Z" fill="white"/>
<path d="M15.2457 9.57047L16.1704 9.18365C17.6924 7.17176 18.8607 5.64629 19.894 4.48763C21.0313 3.2124 21.9762 2.41569 23.0055 1.919C24.8674 1.02047 26.9579 0.75178 28.9773 1.15144C29.9715 1.34819 30.9576 1.79253 32.1554 2.5572C32.3596 2.4809 32.5587 2.40813 32.7531 2.33892C31.3777 1.42457 30.2424 0.87881 29.0715 0.64709C26.9486 0.226954 24.751 0.509417 22.7937 1.45399C20.5685 2.52782 18.8083 4.85677 15.2879 9.51466L15.2457 9.57047Z" fill="white"/>
<path d="M49.9699 15.9286L50.0242 15.9721C54.5491 19.5959 56.8116 21.4078 57.8548 23.6984C58.7724 25.7133 59.0468 27.9755 58.6386 30.1607C58.4135 31.366 57.8833 32.5347 56.9951 33.9505C56.9278 33.7505 56.8571 33.5455 56.783 33.3353C57.5259 32.1023 57.9575 31.0871 58.1487 30.0638C58.5369 27.985 58.2759 25.8331 57.403 23.9164C56.9205 22.857 56.1466 21.8843 54.9077 20.7135C53.7821 19.6498 52.3002 18.4472 50.3457 16.8804L49.9699 15.9286Z" fill="white"/>
<path d="M33.2757 2.69572C33.0832 2.76172 32.8859 2.83159 32.6831 2.90529C32.8512 3.01943 33.023 3.13906 33.1992 3.26433C33.4018 3.19305 33.5987 3.12597 33.7906 3.06312C33.6149 2.9355 33.4434 2.81306 33.2757 2.69572Z" fill="white"/>
<path d="M48.3989 14.6704L49.1865 15.3012L49.5622 16.2527L48.7746 15.622L48.3989 14.6704Z" fill="white"/>
<path d="M34.2969 3.43656C35.4187 4.27517 36.7108 5.30991 38.2723 6.56043L47.6153 14.0429C47.6968 14.2491 47.7799 14.4596 47.8649 14.6748L47.9911 14.9946L37.9659 6.9658C36.2558 5.5962 34.8812 4.49562 33.7033 3.62918C33.8127 3.59217 33.9204 3.5565 34.0265 3.52218C34.1181 3.49254 34.2082 3.46401 34.2969 3.43656Z" fill="white"/>
<path d="M56.4449 33.8785C56.334 34.0515 56.2178 34.2284 56.0961 34.4097C56.1653 34.6183 56.2305 34.821 56.2915 35.0185C56.4155 34.8377 56.5345 34.6612 56.6485 34.4885C56.5843 34.2904 56.5165 34.0872 56.4449 33.8785Z" fill="white"/>
<path d="M44.4029 50.8669L45.0156 50.0561L44.0912 50.4429L43.4784 51.2536L44.4029 50.8669Z" fill="white"/>
<path d="M26.8836 58.6866C28.0814 59.4513 29.0676 59.8956 30.0617 60.0924C32.0812 60.492 34.1717 60.2234 36.0336 59.3248C37.0628 58.8281 38.0077 58.0314 39.145 56.7562C40.1784 55.5975 41.3466 54.0721 42.8687 52.0602L43.7933 51.6733L43.7511 51.7292C40.2308 56.387 38.4706 58.716 36.2454 59.7898C34.288 60.7344 32.0904 61.0169 29.9675 60.5967C28.7967 60.365 27.6614 59.8192 26.286 58.9049C26.4803 58.8357 26.6794 58.7629 26.8836 58.6866Z" fill="white"/>
<path d="M26.3559 58.3385C26.1879 58.2244 26.016 58.1048 25.8399 57.9795C25.6373 58.0508 25.4403 58.1179 25.2485 58.1807C25.4241 58.3083 25.5956 58.4308 25.7634 58.5481C25.9558 58.4821 26.1532 58.4122 26.3559 58.3385Z" fill="white"/>
<path d="M24.7421 57.8073C24.8308 57.7798 24.9209 57.7513 25.0125 57.7217C25.1186 57.6873 25.2264 57.6517 25.3358 57.6146C24.1579 56.7482 22.7833 55.6476 21.0731 54.278L11.0478 46.2492L11.1741 46.569C11.259 46.7842 11.3422 46.9947 11.4236 47.2008L20.7668 54.6834C22.3283 55.9339 23.6203 56.9687 24.7421 57.8073Z" fill="white"/>
<path d="M44.7007 49.6364L45.0114 49.5064C45.2204 49.419 45.4249 49.3334 45.6252 49.2495L52.8941 39.6319C54.1089 38.0245 55.1141 36.6945 55.9288 35.5398C55.9021 35.4484 55.8744 35.3556 55.8456 35.2613C55.8123 35.1521 55.7776 35.0413 55.7417 34.9286C54.8999 36.1411 53.8308 37.5561 52.5003 39.3165L44.7007 49.6364Z" fill="white"/>
</svg>
