<svg width="59" height="61" viewBox="0 0 59 61" fill="none" xmlns="http://www.w3.org/2000/svg">
<path fill-rule="evenodd" clip-rule="evenodd" d="M38.3468 53.9423L49.9012 44.275C52.132 42.4085 53.7816 41.0279 55.0002 39.8261C56.2145 38.6284 56.9681 37.639 57.4286 36.5692C58.2616 34.6338 58.478 32.4766 58.0468 30.4069C57.8085 29.2628 57.2672 28.1357 56.3163 26.7078C55.362 25.2751 54.0214 23.5765 52.2082 21.2801L42.8169 9.38613C41.0037 7.08975 39.6625 5.39168 38.495 4.13734C37.3315 2.88735 36.3703 2.11154 35.3311 1.63755C33.4509 0.780065 31.3553 0.557291 29.3447 1.00115C28.2332 1.24651 27.1383 1.80373 25.7512 2.78258C24.3594 3.76484 22.7093 5.1449 20.4784 7.01137L8.92402 16.6786C6.6932 18.5451 5.04361 19.9258 3.82508 21.1276C2.61077 22.3252 1.85711 23.3147 1.39665 24.3845C0.563644 26.3199 0.347227 28.477 0.778416 30.5468C1.01677 31.6909 1.55808 32.818 2.50899 34.2458C3.4632 35.6786 4.80386 37.3772 6.61705 39.6735L16.0083 51.5675C17.8215 53.8639 19.1628 55.562 20.3303 56.8163C21.4937 58.0663 22.4549 58.8421 23.4942 59.3161C25.3743 60.1736 27.4699 60.3964 29.4806 59.9525C30.592 59.7071 31.687 59.1499 33.074 58.1711C34.4659 57.1888 36.116 55.8088 38.3468 53.9423ZM58.5347 30.2992C58.0193 27.8256 56.2113 25.5358 52.5954 20.9562L43.2041 9.0622C39.5881 4.48259 37.7801 2.19278 35.5332 1.168C33.5567 0.266573 31.3538 0.0323833 29.24 0.498989C26.8371 1.02945 24.6126 2.89057 20.1638 6.61282L8.60934 16.2801C4.16047 20.0023 1.93603 21.8635 0.940501 24.1764C0.0648097 26.211 -0.162696 28.4787 0.290589 30.6545C0.805902 33.1281 2.6139 35.4179 6.22989 39.9975L15.6212 51.8915C19.2372 56.4711 21.0452 58.7609 23.2921 59.7856C25.2685 60.6871 27.4715 60.9213 29.5852 60.4547C31.9882 59.9242 34.2126 58.0631 38.6615 54.3408L50.2159 44.6736C54.6648 40.9513 56.8892 39.0902 57.8847 36.7772C58.7604 34.7427 58.9879 32.475 58.5347 30.2992Z" fill="white"/>
</svg>
