<svg width="255" height="252" viewBox="0 0 255 252" fill="none" xmlns="http://www.w3.org/2000/svg">
<path d="M250.733 68.9464V81.3757C250.56 81.8755 250.36 82.3227 250.121 82.7173C248.803 84.9533 246.541 85.6109 243.759 85.5714C239.021 85.5057 239.021 85.5714 237.61 89.9513C227.762 120.558 217.886 151.138 208.077 181.757C205.469 189.925 200.385 195.423 191.707 197.212C189.911 197.58 188.021 197.593 186.184 197.593C146.696 197.619 107.222 197.619 67.7337 197.606C56.3678 197.606 49.2874 192.49 45.8403 181.783C35.792 150.585 25.7437 119.374 15.7619 88.1494C15.1231 86.1633 14.2846 85.4399 12.1019 85.4794C8.58834 85.5451 6.43227 85.3742 5.12799 84.4929C3.46436 83.3881 3.15826 81.139 3.15826 76.7723C3.15826 74.9309 3.14495 73.0764 3.15826 71.235C3.19819 67.8548 5.96646 65.1322 9.38688 65.1322C22.1236 65.1059 34.8471 65.0532 47.5838 65.1848C49.8996 65.2111 51.1506 64.4351 52.415 62.6068C66.8553 41.7072 81.3888 20.8602 95.8956 0V97.2642C95.8956 100.066 93.5931 102.341 90.7583 102.341H75.24L127.491 177.917L178.638 102.341H163.12C160.285 102.341 157.982 100.066 157.982 97.2642V0.0131575C172.569 20.9786 187.182 41.9308 201.716 62.9357C202.847 64.5797 203.992 65.1848 206.001 65.1716C218.578 65.0664 231.142 65.1848 243.706 65.0796C246.913 65.0532 249.336 65.9739 250.733 68.9464Z" fill="#00FF00"/>
<path d="M33.0403 244.244C30.5944 247.199 27.2858 249.329 23.57 250.341C19.8541 251.353 15.9136 251.197 12.2908 249.894C8.66797 248.592 5.5409 246.207 3.33993 243.067C1.13897 239.928 -0.0276961 236.189 0.000499263 232.365C0.0286946 228.54 1.25036 224.818 3.49738 221.712C5.74439 218.605 8.9063 216.265 12.5479 215.016C16.1896 213.766 20.132 213.667 23.8325 214.733C27.533 215.799 30.8098 217.977 33.2119 220.967L27.1727 225.746C25.766 223.995 23.8471 222.72 21.6801 222.096C19.5131 221.471 17.2044 221.529 15.0719 222.261C12.9394 222.993 11.0878 224.363 9.77192 226.182C8.45608 228.002 7.74067 230.181 7.72416 232.421C7.70765 234.66 8.39085 236.85 9.67972 238.688C10.9686 240.527 12.7998 241.923 14.9213 242.686C17.0428 243.449 19.3504 243.54 21.5264 242.947C23.7024 242.355 25.6398 241.108 27.0722 239.377L33.0403 244.244Z" fill="white"/>
<path d="M47.428 251.281H37.6133V213.58H47.428V251.281ZM65.0944 236.201H47.428V228.661H65.0944V236.201ZM65.0944 213.581L74.9091 213.58V251.282H65.0944V213.581Z" fill="white"/>
<path d="M88.6702 243.741H110.262V251.281H78.8555V213.58H110.262V221.12H88.6702V243.741ZM88.6702 229.603H106.337V235.258H88.6702V229.603Z" fill="white"/>
<path d="M113.848 251.281L129.551 213.58H137.403L153.106 251.281H145.255L131.514 217.35H135.44L121.699 251.281H113.848ZM121.592 243.477L123.555 235.937H141.221L144.166 243.477H121.592Z" fill="white"/>
<path d="M157.168 251.281V213.58H173.824C177.272 213.58 180.234 214.131 182.729 215.223C185.224 216.314 187.148 217.891 188.5 219.935C189.852 221.979 190.538 224.405 190.538 227.205C190.538 230.042 189.862 232.477 188.5 234.502C187.148 236.527 185.224 238.104 182.729 239.215C180.234 240.326 177.3 240.326 173.853 240.326H162.075L166.983 236.201V251.281H157.168ZM166.983 238.086L162.075 234.316H167.964H173.329C176.043 234.316 178.091 233.205 179.481 232.057C180.872 230.91 181.567 229.295 181.567 227.214C181.567 225.133 181.143 223.707 179.742 222.063C177.893 219.893 175.576 219.235 172.871 219.235H161.094L166.983 216.408V238.086Z" fill="white"/>
<path d="M206.438 251.281V213.58H216.252V251.281H206.438Z" fill="#00FF00"/>
<path d="M232.418 251.281V221.12H220.641V213.58H254.011V221.12H242.233V251.281H232.418Z" fill="#00FF00"/>
</svg>
