<svg width="326" height="314" viewBox="0 0 326 314" fill="none" xmlns="http://www.w3.org/2000/svg">
<path d="M104.391 168.363C109.156 166.775 115.123 166.145 119.437 163.894L119.329 167.782C111.462 168.221 104.825 171.419 99.542 176.713C92.2142 184.151 89.8893 184.399 81.3525 178.723C78.2161 176.643 75.2888 175.417 71.838 174.435L74.5006 170.393C84.5306 171.793 94.2187 171.733 104.391 168.363Z" fill="#00FF00"/>
<path d="M76.388 205.921C72.4665 199.801 67.2515 194.394 60.8834 191.068L58.3896 194.854C63.7921 197.639 68.1088 202.232 71.2797 207.206C72.8174 209.618 74.2618 212.052 75.613 214.509L80.8491 217.077C79.5872 213.277 78.5932 209.371 76.388 205.921ZM170.184 193.071C168.308 193.884 162.449 197.383 160.282 198.637C157.722 202.694 160.065 210.038 154.431 209.441C149.114 208.898 142.724 208.04 138.161 210.946C131.153 214.762 124.304 218.808 117.174 222.654C116.659 222.981 116.593 222.947 116.091 223.281C113.953 224.702 112.404 227.476 109.512 228.178C105.548 229.142 99.881 224.48 98.7809 226.15L115.877 234.8C122.718 231.658 128.542 226.017 134.01 220.509C137.223 217.279 140.53 214.028 145.866 213.159C147.01 212.976 148.124 213.184 148.355 213.94C148.562 214.617 148.119 215.787 147.47 216.281C139.138 222.889 133.778 231.529 125.883 238.419C125.72 238.542 125.029 239.349 124.867 239.473L131.967 242.942C134.722 232.651 140.818 223.476 152.224 217.597C158.746 214.231 166.595 212.26 170.32 205.795C171.752 203.283 173.337 194.55 170.184 193.071Z" fill="#00FF00"/>
<path d="M117.688 208.189L117.362 216.214C117.362 216.214 117.328 216.197 117.281 216.208C112.376 220.774 106.669 224.845 98.6821 223.093C91.7155 221.572 88.8469 216.442 86.9704 211.122C82.9901 200.067 75.2269 191.207 64.2962 185.88L67.6669 180.763C77.2364 183.765 83.5724 189.049 89.5936 198.602C96.8077 210.092 105.988 212.942 117.688 208.189Z" fill="#00FF00"/>
<path d="M118.158 196.373L117.946 201.905C117.198 201.91 115.395 201.394 115.036 200.71C114.042 198.767 116.475 197.408 118.158 196.373Z" fill="#00FF00"/>
<path d="M62.7027 208.148L59.2904 206.475C57.5123 205.603 52.9499 203.085 53.5304 202.204C53.8209 201.763 54.4011 200.882 54.6967 200.433C54.9923 199.985 60.6882 204.995 62.7027 208.148Z" fill="#00FF00"/>
<path fill-rule="evenodd" clip-rule="evenodd" d="M236.993 55.7863L236.993 55.7757C236.972 55.2599 236.853 54.7095 236.666 54.101C236.427 53.3209 236.052 52.5656 235.522 51.7926L235.514 51.7809L235.514 51.7808C233.141 48.1448 228.136 46.1865 223.264 47.335C222.551 47.5032 221.852 47.7519 221.2 48.0349C219.709 48.6825 218.451 49.6138 217.49 50.7286L217.485 50.734L217.485 50.734C215.837 52.6039 215.023 54.9991 215.301 57.4822C215.356 57.9726 215.468 58.4977 215.627 59.0158C216.186 60.8366 217.281 62.3556 218.753 63.533L218.758 63.5363L218.758 63.5363C220.499 64.9502 222.703 65.8287 225.086 66.0298L225.101 66.0311L225.101 66.0313C226.332 66.1589 227.652 66.0614 228.968 65.751C231.899 65.06 234.233 63.3659 235.607 61.2182L235.611 61.2117L235.611 61.2117C236.662 59.6131 237.147 57.7187 236.994 55.797L236.993 55.7863ZM236.239 61.5289C237.365 59.8161 237.88 57.7951 237.718 55.7528C237.694 55.1704 237.561 54.5686 237.367 53.9359C237.108 53.0924 236.704 52.2828 236.144 51.4652C233.611 47.5846 228.273 45.4959 223.076 46.7213C222.306 46.9028 221.561 47.1687 220.878 47.4654C219.285 48.1578 217.939 49.1535 216.911 50.3456C215.15 52.3437 214.284 54.9 214.579 57.5441C214.638 58.073 214.758 58.6326 214.927 59.1809C215.522 61.1211 216.692 62.7451 218.265 64.0025C220.121 65.5098 222.473 66.4479 225.016 66.6625C226.349 66.8006 227.761 66.6938 229.157 66.3648C232.285 65.6273 234.775 63.8191 236.239 61.5289Z" fill="#00FF00"/>
<path d="M181.511 47.57C181.191 47.0476 179.962 46.0282 179.642 45.5059L173.716 46.4823C174.307 47.1968 175.735 48.3715 176.277 49.0977C180.525 54.6286 185.668 60.1202 181.119 67.3754C178.075 72.2293 172.493 75.9295 170.067 81.0649C166.687 88.1311 163.072 94.9538 155.176 99.795C153.332 100.911 153.839 101.429 154.645 103.544C155.452 105.659 155.622 107.784 158.101 108.226L176.42 80.4186C177.327 79.0424 176.748 79.9212 177.928 78.1301C178.308 77.5523 178.193 77.7273 178.931 76.6065L189.164 61.0741C188.417 55.1475 184.582 52.7371 181.511 47.57Z" fill="#00FF00"/>
<path d="M191.741 43.4933L180.91 45.2788C180.91 45.2788 188.72 47.9721 190.503 50.2561C192.226 52.4624 190.301 59.314 190.301 59.314L196.13 50.4674L199.615 45.1766L191.741 43.4933Z" fill="#00FF00"/>
<path d="M119.161 171.736L119.002 175.416C112.119 176.947 106.121 180.453 102.212 187.132C101.044 189.198 99.3069 191.697 101.494 193.615C102.782 194.721 104.48 192.914 105.227 191.757C108.672 186.34 113.476 183.086 118.788 181.156L118.656 184.288L118.543 187.43C117.219 188.167 115.673 188.792 114.384 189.65C111.727 191.426 110.136 194.402 107.894 196.721C106.034 198.651 103.628 199.941 100.654 198.72C96.1989 196.907 94.6266 193.564 96.5823 189.819C100.711 181.894 105.448 173.997 116.596 172.02C117.215 171.917 118.577 171.788 119.161 171.736Z" fill="#00FF00"/>
<path d="M173.473 191.138L177.388 189.063C178.692 190.548 180.11 192.707 180.291 195.097C181.116 205.486 174.726 213.045 166.371 219.744C160.056 224.768 152.276 228.601 147.815 235.11C145.078 239.081 143.202 244.053 141.952 248.144L136.923 245.602C137.611 234.602 146.224 227.291 156.309 221.509C164.361 216.93 172.709 212.665 175.647 203.954C177.286 199.174 176.299 194.656 173.473 191.138Z" fill="#00FF00"/>
<path d="M184.967 184.785C186.604 185.723 189.091 187.569 189.921 189.465C191.544 193.137 189.408 196.455 187.468 199.599C183.323 206.162 182.851 213.612 179.785 220.434C177.117 226.266 170.806 228.687 165.322 231.852C156.69 236.823 151.947 245.916 153.517 253.996L147.986 251.197C148.931 245.129 152.651 238.497 157.007 234.914C168.082 225.828 179.229 216.98 183.443 203.446C185.732 196.209 184.645 190.484 181.22 186.808L184.967 184.785Z" fill="#00FF00"/>
<path d="M222.965 162.812C222.965 162.812 217.793 155.957 214.515 153.249C207.775 148.971 202.947 148.844 198.751 151.736C196.853 153.044 195.141 154.61 193.399 157.256L191.367 160.34C190.496 161.662 190.624 164.075 190.624 164.075C190.624 164.075 190.826 165.371 191.343 166.035C191.591 166.355 192.1 166.77 192.1 166.77L195.694 168.589C195.694 168.589 198.725 160.361 200.586 159.127C203.615 157.12 205.405 156.5 209.02 157.519C212.576 158.522 217.682 167.778 217.682 167.778C217.682 167.778 215.622 162.93 218.299 162.214C220.06 161.743 222.965 162.812 222.965 162.812Z" fill="#00FF00"/>
<path d="M243.02 132.959C246.073 134.93 246.089 137.46 246.992 140.576L243.52 145.846C241.112 142.059 238.532 139.219 234.059 136.855C224.641 131.898 219.687 126.188 219.377 117.812L223.923 110.903C224.27 117.435 225.761 123.784 232.355 128.338C235.398 130.439 239.895 130.919 243.02 132.959Z" fill="#00FF00"/>
<path d="M267.584 109.334C265.02 103.237 264.264 96.9523 259.838 91.634C255.719 86.67 247.985 84.1885 241.022 84.9701L244.561 79.5977C250.081 80.4775 256.373 83.3255 260.08 86.1247L262.197 91.4187L266.956 103.326L267.804 105.5L268.166 106.355C268.659 107.476 267.664 108.12 267.584 109.334Z" fill="#00FF00"/>
<path d="M260.821 99.4279C257.19 91.1493 246.705 87.016 237.411 90.4785L227.417 105.649C227.389 107.192 227.747 108.859 228.129 110.433C229.526 115.823 229.875 121.544 235.255 125.401C238.193 127.485 242.697 126.513 245.44 128.941C248.454 131.604 247.763 134.792 248.599 138.18L252.082 132.892C251.074 128.776 250.921 125.605 245.669 123.638C241.78 122.205 237.014 122.812 234.253 118.852C228.66 110.863 230.918 99.1108 239.232 94.897C245.732 91.6212 253.737 94.9044 258.521 102.699C261.168 106.942 261.524 110.782 263.694 115.265L265.727 112.18C263.369 107.742 262.83 104.034 260.821 99.4279Z" fill="#00FF00"/>
<path d="M250.88 69.9925L247.977 74.3989L255.793 75.4174L254.915 73.21L250.88 69.9925Z" fill="#00FF00"/>
<path d="M259.903 120.984L256.42 126.272C255.101 122.613 253.295 119.51 248.893 117.215C245.62 115.509 240.987 116.383 238.449 113.48C235.223 109.8 237.019 103.405 242.433 101.323C248.418 98.9784 250.453 103.834 252.654 106.944C255.865 111.396 257.436 116.187 259.903 120.984Z" fill="#00FF00"/>
<path d="M127.884 95.1609C126.841 95.0217 125.354 94.7933 124.301 94.7846L126.796 90.9984C126.842 90.9874 127.393 91.2652 127.44 91.2543C132.593 91.751 137.486 94.0155 142.842 92.8858C150.017 91.3288 155.897 82.0969 155.59 73.0802C155.353 65.9247 151.653 61.5907 146.362 61.297L148.452 58.1248L148.722 57.7155L149.935 55.8736C151.982 56.8437 154.82 59.4361 156.917 62.6985C157.668 63.845 158.662 64.8063 160.322 64.6726C161.723 64.5141 162.567 63.6759 163.056 62.4943C164.296 59.515 163.527 56.8367 161.103 54.6325C159.305 53.0064 155.827 51.0745 153.595 50.3184C153.626 50.2919 153.963 49.7627 153.963 49.7627L154.87 49.6087C155.663 49.4225 155.764 50.4983 155.986 50.3295C156.341 50.0898 156.336 49.7601 156.626 49.3209L157.663 49.1513C157.663 49.1513 164.667 54.3501 165.844 58.8529C167.168 64.0035 163.452 68.2046 161.224 72.696C158.323 78.5829 156.714 84.9345 152.239 90.2525C145.735 98.0949 136.646 96.1756 127.884 95.1609Z" fill="#00FF00"/>
<path d="M171.882 70.0722C166.869 75.431 164.631 82.0157 161.052 87.9764C154.077 99.5137 142.357 102.565 128.242 101.868C124.894 101.716 120.922 101.574 119.11 102.682L122.043 98.2311C125.333 97.5437 130.244 98.1126 134.064 98.6663C141.493 99.738 148.809 99.1295 154.146 93.5237C161.204 86.0205 163.57 76.419 169.463 68.3786C172.778 63.8452 172.624 58.761 170.307 53.8006C169.155 51.3403 167.844 49.5526 165.811 47.8111L169.356 47.2135C171.456 49.6647 173.164 52.0204 174.637 54.8748C177.44 60.4462 176.247 65.3774 171.882 70.0722Z" fill="#00FF00"/>
<path d="M149.394 74.8679C149.272 80.3583 146.941 85.002 139.398 88.1387C136.688 87.4524 133.186 86.5719 130.171 85.8717L141.935 68.0153C146.889 66.5533 149.556 68.856 149.394 74.8679Z" fill="#00FF00"/>
<path d="M78.3225 164.605C82.6579 165.208 89.8914 166.904 94.4966 166.591C104.409 165.97 113.412 161.722 116.216 155.517C117.896 151.868 119.301 148.415 120.225 144.992L120.791 130.671C119.964 127.478 117.423 123.375 116.346 120.283C115.691 118.304 111.941 114.717 112.18 113.21L106.585 121.704C109.332 123.491 114.916 127.873 115.987 131.377C119.919 144.236 107.296 156.929 90.8592 157.802C89.433 157.88 85.1194 156.43 83.7155 156.418L78.3225 164.605Z" fill="#00FF00"/>
<path d="M103.79 141.841C99.3064 146.478 93.8838 148.794 88.0127 149.874L91.9397 143.913L101.243 129.791L103.703 126.056C107.706 130.151 108.008 137.48 103.79 141.841Z" fill="#00FF00"/>
<path d="M144.151 129.36L155.11 112.724C154.899 110.725 154.419 108.801 153.132 106.884C150.712 103.058 146.399 102.364 142.187 104.291C138.453 105.979 140.836 108.705 142.078 110.803C145.433 116.544 146.575 122.078 141.248 127.554C138.625 130.261 130.266 131.497 128.971 134.788L132.866 136.759C135.521 138.102 138.916 137.305 140.449 134.978L140.664 134.652L141.828 132.885L144.151 129.36Z" fill="#00FF00"/>
<path d="M135.684 115.378C137.124 119.435 132.802 126.886 127.976 129.257C125.022 130.719 123.819 128.91 123.293 127.028C121.754 121.501 120.4 115.931 119.187 110.327C118.867 108.952 118.869 107.159 120.851 106.608C123.754 105.799 128.308 107.119 129.637 108.684C132.094 111.649 134.635 111.784 135.684 115.378Z" fill="#00FF00"/>
<path d="M200.298 189.625C200.477 192.826 198.655 200.117 203.216 200.966C205.608 201.429 207.509 198.517 209.394 197.648L207.652 200.292L202.136 208.664L199.814 212.19C199.012 211.695 198.929 212.135 197.663 211.921C192.155 211.081 189.611 214.537 188.124 218.342C184.492 227.729 180.68 236.689 170.885 243.256C165.292 247.044 165.321 254.177 169.912 257.579C167.551 258.688 163.872 258.64 161.243 257.892C156.644 251.846 160.085 241.952 169.585 236.222C180.735 229.508 185.718 220.614 187.903 209.604C188.828 204.779 192.108 200.296 194.24 195.656C197.525 188.57 196.704 184.681 190.573 181.64L193.996 179.66C197.776 181.717 200.089 184.853 200.298 189.625Z" fill="#00FF00"/>
<path d="M173.419 252.255C173.35 252.356 173.332 252.449 173.25 252.511C173.471 251.435 181.281 239.403 182.395 238.63L173.419 252.255Z" fill="#00FF00"/>
<path d="M215.355 123.887C216.361 128.814 220.488 133.596 226.854 136.752C233.867 140.225 236.718 142.678 238.834 149.435C238.955 149.833 239.941 150.668 240.063 151.066L235.235 158.394C235.535 156.105 237.608 154.751 237.298 152.263C236.492 145.54 231.204 141.491 223.977 139.774C218.91 138.575 212.93 136.237 207.704 135.501L215.355 123.887Z" fill="#00FF00"/>
<path d="M204.283 140.694C208.005 140.929 212.491 142.77 216.102 143.458C223.113 144.799 229.919 146.614 231.55 153.912C232.143 156.503 232.092 159.118 230.682 161.54C230.315 162.138 229.294 162.89 228.639 162.873C226.556 162.765 226.324 161.027 225.947 159.793C222.849 150.152 215.26 144.467 204.274 145.34C203.491 145.395 201.949 145.135 201.249 145.299L204.283 140.694Z" fill="#00FF00"/>
<path d="M205.261 173.401L198.724 170.093C198.724 170.093 199.286 169.407 200.977 168.708C203.089 167.835 204.735 169.015 205.793 170.557C206.415 171.462 206.472 172.157 206.393 173.211C206.244 175.196 205.837 176.627 203.238 177.489C199.945 178.581 198.255 177.319 198.255 177.319L205.261 173.401Z" fill="#00FF00"/>
<path d="M196.611 217.055C196.542 217.156 185.951 233.297 185.87 233.359C186.026 232.598 189.265 222.611 192.95 217.27C194.473 215.062 198.028 214.636 198.354 214.41L196.611 217.055Z" fill="#00FF00"/>
<path d="M216.386 187.074C217.538 185.306 227.418 170.329 227.418 170.329C227.418 170.329 217.066 180.955 216.408 182.972C215.75 184.989 210.141 183.326 212.173 180.241C214.205 177.157 214.629 178.547 216.74 174.327C218.85 170.106 211.655 159.972 205.274 163.235C201.231 165.303 213.038 168.556 211.633 172.918C210.762 175.624 208.227 177.071 207.569 179.088C206.91 181.105 209.803 183.448 210.198 186.293C210.676 189.737 204.841 192.393 205.98 194.733C207.119 197.072 212.609 192.808 212.609 192.808L213.48 191.487L214.351 190.164C214.351 190.164 215.225 188.837 216.386 187.074Z" fill="#00FF00"/>
<path d="M225.678 166.972L220.464 170.096C220.016 169.57 219.425 167.991 219.841 167.333C221.04 165.481 223.729 166.395 225.678 166.972Z" fill="#00FF00"/>
<path d="M205.42 187.4C204.779 188.374 203.358 188.707 202.247 188.145C201.137 187.583 200.756 186.338 201.397 185.365C202.039 184.391 203.459 184.058 204.57 184.62C205.681 185.182 206.061 186.427 205.42 187.4Z" fill="#00FF00"/>
<path d="M125.579 243.185L117.481 255.881L113.964 254.158L118.823 246.541L109.147 250.132L107.74 249.443L105.458 239.994L100.599 247.611L97.0822 245.888L105.18 233.192L108.697 234.915L110.468 246.614L122.376 241.616L125.579 243.185Z" fill="white"/>
<path d="M124.031 255.757L131.769 259.548L130.149 262.087L118.895 256.573L126.992 243.877L138.247 249.391L136.627 251.93L128.89 248.14L124.031 255.757ZM127.068 250.996L133.399 254.097L132.184 256.002L125.853 252.901L127.068 250.996Z" fill="white"/>
<path d="M130.848 262.423L144.573 252.484L147.386 253.863L144.916 269.315L142.103 267.937L144.466 254.098L145.873 254.788L133.661 263.802L130.848 262.423ZM135.299 261.155L137.622 258.96L143.953 262.061L143.389 265.118L135.299 261.155Z" fill="white"/>
<path d="M145.613 269.666L153.711 256.97L157.228 258.693L150.345 269.484L160.193 274.308L158.978 276.213L145.613 269.666Z" fill="white"/>
<path d="M69.542 229.344C67.9722 229.906 66.2573 230.025 64.6335 229.686C63.0097 229.346 61.5567 228.564 60.4745 227.447C59.3923 226.33 58.7341 224.934 58.5905 223.45C58.4468 221.966 58.8248 220.467 59.6725 219.16C60.5201 217.853 61.7957 216.802 63.3236 216.151C64.8516 215.5 66.5569 215.282 68.2047 215.527C69.8526 215.771 71.3621 216.466 72.5254 217.516C73.6888 218.566 74.4488 219.919 74.7009 221.389L71.3757 221.913C71.2281 221.052 70.783 220.259 70.1018 219.644C69.4205 219.03 68.5366 218.623 67.5716 218.48C66.6066 218.336 65.608 218.464 64.7132 218.845C63.8184 219.226 63.0715 219.842 62.5751 220.607C62.0787 221.373 61.8574 222.25 61.9415 223.119C62.0256 223.988 62.411 224.806 63.0448 225.46C63.6785 226.114 64.5294 226.572 65.4803 226.771C66.4312 226.97 67.4354 226.9 68.3547 226.571L69.542 229.344Z" fill="white"/>
<path d="M87.0743 232.642C84.8383 236.148 79.8763 237.448 75.9914 235.545C72.1065 233.642 70.7699 229.257 73.0059 225.751C75.242 222.245 80.204 220.946 84.0889 222.849C87.9738 224.752 89.3104 229.137 87.0743 232.642ZM75.9209 227.179C74.6115 229.232 75.3942 231.8 77.6692 232.914C79.9442 234.028 82.8499 233.268 84.1593 231.215C85.4688 229.161 84.6861 226.594 82.4111 225.479C80.1361 224.365 77.2304 225.126 75.9209 227.179Z" fill="white"/>
<path d="M48.7657 218.877L56.5033 222.667L54.8838 225.206L43.6291 219.693L51.7266 206.997L62.9813 212.51L61.3618 215.05L53.6242 211.259L48.7657 218.877ZM51.8022 214.116L58.133 217.217L56.9184 219.121L50.5876 216.02L51.8022 214.116Z" fill="white"/>
<path d="M69.2099 235.559L58.3477 252.59L53.6583 250.293L60.1757 240.074L47.2416 244.914L45.3659 243.995L42.3562 231.345L35.8388 241.564L31.1495 239.266L42.0117 222.236L46.7011 224.533L49.0193 240.197L64.9391 233.467L69.2099 235.559Z" fill="#00FF00"/>
<path d="M59.2433 253.035L77.6084 239.68L81.3599 241.518L78.0006 262.224L74.2491 260.386L77.4601 241.842L79.3358 242.761L62.9947 254.873L59.2433 253.035ZM65.192 251.322L68.3023 248.375L76.7431 252.51L75.9775 256.606L65.192 251.322Z" fill="#00FF00"/>
<path d="M121.472 279.052L131.789 284.106L129.616 287.512L114.61 280.161L125.473 263.13L140.479 270.481L138.306 273.887L127.99 268.834L121.472 279.052ZM125.546 272.666L133.986 276.8L132.357 279.355L123.916 275.22L125.546 272.666Z" fill="#00FF00"/>
<path d="M136.191 290.724L144.881 277.099L139.253 274.343L141.426 270.937L157.37 278.747L155.197 282.153L149.57 279.396L140.88 293.021L136.191 290.724Z" fill="#00FF00"/>
<path d="M124.147 262.478L112.049 268.286L113.295 279.514L108.725 277.27L107.678 269.498L104.492 270.731L102.324 274.135L97.753 271.901L108.603 254.864L113.174 257.103L108.019 265.195L119.575 260.239L124.147 262.478Z" fill="#00FF00"/>
<path d="M78.9933 262.709L89.8555 245.679L97.8137 249.577C99.4609 250.384 100.717 251.326 101.595 252.403C102.472 253.48 102.937 254.643 102.994 255.883C103.052 257.123 102.68 258.379 101.874 259.644C101.056 260.925 100.032 261.867 98.7975 262.463C97.5679 263.061 96.1944 263.324 94.6823 263.241C93.1702 263.159 91.7687 262.473 90.1215 261.666L84.4943 258.909L88.0275 258.194L83.6826 265.007L78.9933 262.709ZM87.4844 259.046L86.2259 256.194L89.0395 257.572L91.6029 258.828C92.8997 259.463 94.1979 259.441 95.1929 259.248C96.188 259.055 96.9853 258.488 97.5848 257.548C98.1844 256.608 98.3926 255.865 98.1969 254.794C97.9389 253.381 97.0213 252.542 95.7291 251.909L90.1019 249.152L93.7301 249.253L87.4844 259.046Z" fill="#00FF00"/>
<path d="M91.2191 268.693L91.8125 260.043L96.5018 262.341L96.8463 271.45L91.2191 268.693Z" fill="#00FF00"/>
</svg>
