<svg width="106" height="85" viewBox="0 0 106 85" fill="none" xmlns="http://www.w3.org/2000/svg">
<path d="M105.315 30.0858V35.378C105.242 35.5908 105.157 35.7812 105.056 35.9492C104.499 36.9012 103.543 37.1812 102.367 37.1644C100.365 37.1364 100.365 37.1644 99.7689 39.0293C95.6067 52.0608 91.4333 65.0811 87.2879 78.1183C86.1855 81.596 84.0369 83.9368 80.3697 84.6985C79.6104 84.8553 78.8117 84.8609 78.0355 84.8609C61.3473 84.8721 44.6648 84.8721 27.9766 84.8665C23.1732 84.8665 20.1809 82.688 18.7242 78.1295C14.4776 64.8459 10.231 51.5568 6.01258 38.262C5.7426 37.4164 5.38825 37.1084 4.46582 37.1252C2.98092 37.1532 2.06974 37.0804 1.51853 36.7052C0.815455 36.2348 0.686094 35.2772 0.686094 33.4179C0.686094 32.6339 0.680469 31.8443 0.686094 31.0603C0.702967 29.621 1.87288 28.4618 3.3184 28.4618C8.70113 28.4506 14.0782 28.4282 19.461 28.4842C20.4397 28.4954 20.9684 28.165 21.5027 27.3866C27.6054 18.4879 33.7474 9.61169 39.8782 0.729858V42.1429C39.8782 43.3358 38.9052 44.3046 37.7071 44.3046H31.1489L53.231 76.483L74.8463 44.3046H68.2881C67.09 44.3046 66.117 43.3358 66.117 42.1429V0.735461C72.2815 9.66209 78.4573 18.5831 84.5994 27.5266C85.0775 28.2266 85.5612 28.4842 86.4105 28.4786C91.7257 28.4338 97.0353 28.4842 102.345 28.4394C103.7 28.4282 104.724 28.8202 105.315 30.0858Z" fill="#00FF00"/>
</svg>
