<svg width="229" height="281" viewBox="0 0 229 281" fill="none" xmlns="http://www.w3.org/2000/svg">
<path fill-rule="evenodd" clip-rule="evenodd" d="M197.83 97.7966C195.64 80.7774 186.805 72.5907 171.619 72.5907C167.577 72.5907 163.084 72.5881 158.563 72.5854C153.988 72.5827 149.386 72.58 145.195 72.58L145.195 59.3528C153.344 56.7802 163.358 52.9126 171.619 48.2485C175.409 46.1085 179.583 44.1519 183.733 42.2068C198.541 35.2658 213.036 28.471 208.676 14.0076C208.003 11.774 214.405 9.36828 220.198 7.19154C230.785 3.21335 239.337 0 198.941 0L30.2022 0C-10.1906 0 -1.63247 3.2158 8.95423 7.19382C14.748 9.37086 21.1492 11.7762 20.4672 14.0076C15.9529 28.7773 31.1266 35.4414 46.5629 42.2209C50.971 44.1569 55.4006 46.1023 59.3992 48.2485C61.6205 49.4408 63.835 50.7362 66.0433 52.028C70.8893 54.8627 75.7057 57.6801 80.4998 59.3528L80.4998 72.5829H59.3992C41.3652 72.5829 33.0418 80.5673 30.5594 100.528C26.462 133.494 22.4244 166.516 18.3925 199.493C17.97 202.948 17.5476 206.403 17.1251 209.858C14.8617 228.628 24.4021 240.324 41.5599 240.464H72.3873C72.3873 240.464 96.0944 218.931 114.572 218.675C133.566 218.411 156.757 240.495 156.757 240.495C167.04 240.492 177.324 240.483 187.608 240.464C200.094 240.464 210.169 232.83 211.921 221.274C212.601 216.58 211.952 211.523 211.329 206.666C211.283 206.305 211.237 205.944 211.191 205.585C210.461 199.597 209.733 193.609 209.005 187.621C205.365 157.679 201.724 127.738 197.83 97.7966ZM90.7 49.3496L90.6999 134.815C90.6999 137.308 89.0492 139.334 87.0167 139.334H75.8905L113.353 206.596L150.023 139.334H138.897C136.865 139.334 135.214 137.308 135.214 134.815L135.214 49.3499L90.7 49.3496Z" fill="#00FF00"/>
<path d="M33.0606 247.471V280.466H27.7114V260.669L19.1526 277.167H17.0129L7.38436 260.669V280.466H2.03516V247.471H7.38436L18.0828 268.918L28.1889 247.471H33.0606Z" fill="white"/>
<path d="M40.5523 273.867H52.3206V280.466H35.2031V247.471H52.3206V254.07H40.5523V273.867ZM40.5523 261.494H50.1809V266.443H40.5523V261.494Z" fill="white"/>
<path d="M54.457 280.466L63.0158 247.471H67.2951L75.8539 280.466H71.5745L64.0856 250.77H66.2253L58.7364 280.466H54.457ZM58.6779 273.636L59.7477 267.037H69.3763L70.9811 273.636H58.6779Z" fill="white"/>
<path d="M77.9922 280.466V247.471H83.3414V275.517H98.3192V280.466H77.9922Z" fill="white"/>
<path d="M216.009 280.466V254.07H209.59V247.471H227.777V254.07H221.358V280.466H216.009Z" fill="#00FF00"/>
<path d="M173.176 280.466C170.164 280.466 167.784 279.185 166.103 276.622C164.422 274.059 163.582 270.429 163.582 265.624L163.582 247.471H168.396L168.396 265.618C168.396 268.715 168.626 270.829 169.466 272.217C170.306 273.606 171.74 273.867 173.211 273.867C174.681 273.867 176.115 273.606 176.955 272.217C177.795 270.829 178.025 268.608 178.025 265.618L178.025 247.471H182.839L182.839 265.517C182.839 270.322 181.999 273.953 180.318 276.515C178.498 279.185 176.187 280.466 173.176 280.466Z" fill="#00FF00"/>
<path d="M207.443 247.471L207.443 280.466H202.133L190.326 260.669L190.326 280.466H184.977L184.977 247.471H190.287L202.094 268.918L202.094 247.471H207.443Z" fill="#00FF00"/>
<path d="M138.684 274.441C137.28 277.076 135.381 278.976 133.248 279.878C131.115 280.781 128.853 280.642 126.774 279.48C124.694 278.319 122.899 276.192 121.636 273.392C120.373 270.593 119.703 267.258 119.719 263.848C119.735 260.437 120.436 257.118 121.726 254.348C123.016 251.577 124.831 249.491 126.921 248.376C129.011 247.262 131.274 247.174 133.398 248.124C135.523 249.075 137.403 251.017 138.782 253.684L135.316 257.946C134.508 256.384 133.407 255.247 132.163 254.69C130.919 254.134 129.594 254.185 128.37 254.838C127.146 255.49 126.083 256.712 125.328 258.335C124.572 259.957 124.162 261.901 124.152 263.898C124.143 265.895 124.535 267.848 125.275 269.487C126.015 271.126 127.066 272.372 128.284 273.052C129.501 273.732 130.826 273.814 132.075 273.285C133.324 272.757 134.436 271.644 135.258 270.101L138.684 274.441Z" fill="#00FF00"/>
<path d="M161.444 263.969C161.444 273.08 156.654 280.466 150.745 280.466C144.837 280.466 140.047 273.08 140.047 263.969C140.047 254.857 144.837 247.471 150.745 247.471C156.654 247.471 161.444 254.857 161.444 263.969ZM144.48 263.969C144.48 269.304 147.285 273.63 150.745 273.63C154.205 273.63 157.01 269.304 157.01 263.969C157.01 258.633 154.205 254.307 150.745 254.307C147.285 254.307 144.48 258.633 144.48 263.969Z" fill="#00FF00"/>
</svg>
