<svg width="41" height="41" viewBox="0 0 41 41" fill="none" xmlns="http://www.w3.org/2000/svg">
<circle cx="20.5" cy="20.5" r="20.5" transform="matrix(-1 0 0 1 41 0)" fill="#FDFDFD"/>
<path d="M26.7973 20.3003C26.8081 19.4657 27.0298 18.6473 27.4418 17.9213C27.8538 17.1954 28.4428 16.5854 29.1539 16.1483C28.7021 15.5031 28.1062 14.9722 27.4134 14.5976C26.7205 14.2231 25.9499 14.0152 25.1627 13.9906C23.4835 13.8143 21.8555 14.9954 20.9998 14.9954C20.1275 14.9954 18.81 14.0081 17.3913 14.0373C16.4736 14.0669 15.5793 14.3338 14.7954 14.8118C14.0115 15.2899 13.3649 15.9629 12.9184 16.7651C10.9844 20.1136 12.427 25.0346 14.2796 27.7412C15.2065 29.0666 16.2898 30.547 17.7072 30.4945C19.0943 30.437 19.6123 29.61 21.2866 29.61C22.9454 29.61 23.4314 30.4945 24.8776 30.4611C26.366 30.437 27.3038 29.1299 28.1981 27.792C28.8641 26.8476 29.3766 25.8039 29.7166 24.6995C28.8518 24.3338 28.1139 23.7216 27.5948 22.9393C27.0757 22.157 26.7983 21.2392 26.7973 20.3003Z" fill="#323434"/>
<path d="M24.0669 12.2113C24.8784 11.2371 25.2782 9.98494 25.1814 8.7207C23.9416 8.85092 22.7963 9.44348 21.9738 10.3803C21.5717 10.838 21.2637 11.3704 21.0674 11.9472C20.8712 12.524 20.7905 13.1337 20.8301 13.7417C21.4502 13.7481 22.0637 13.6137 22.6244 13.3486C23.1851 13.0835 23.6783 12.6946 24.0669 12.2113Z" fill="#323434"/>
</svg>
