<svg width="41" height="41" viewBox="0 0 41 41" fill="none" xmlns="http://www.w3.org/2000/svg">
<g clip-path="url(#clip0_2643_1254)">
<path d="M41 20.5C41 9.17815 31.8218 0 20.5 0C9.17815 0 0 9.17815 0 20.5C0 30.7321 7.49659 39.2131 17.2969 40.751V26.4258H12.0918V20.5H17.2969V15.9836C17.2969 10.8458 20.3574 8.00781 25.04 8.00781C27.2829 8.00781 29.6289 8.4082 29.6289 8.4082V13.4531H27.0439C24.4973 13.4531 23.7031 15.0333 23.7031 16.6545V20.5H29.3887L28.4798 26.4258H23.7031V40.751C33.5035 39.2131 41 30.7321 41 20.5Z" fill="#1877F2"/>
<path d="M28.4817 26.4258L29.3906 20.5H23.7051V16.6545C23.7051 15.0333 24.4992 13.4531 27.0459 13.4531H29.6309V8.4082C29.6309 8.4082 27.2848 8.00781 25.042 8.00781C20.3593 8.00781 17.2988 10.8458 17.2988 15.9836V20.5H12.0938V26.4258H17.2988V40.751C18.3425 40.9147 19.4123 41 20.502 41C21.5917 41 22.6613 40.9147 23.7051 40.751V26.4258H28.4817Z" fill="white"/>
</g>
<defs>
<clipPath id="clip0_2643_1254">
<rect width="41" height="41" fill="white"/>
</clipPath>
</defs>
</svg>
