<svg width="41" height="41" viewBox="0 0 41 41" fill="none" xmlns="http://www.w3.org/2000/svg">
<circle cx="20.5" cy="20.5" r="20.5" transform="matrix(-1 0 0 1 41 0)" fill="#FDFDFD"/>
<path d="M20.3572 19.5514L12.0781 28.3383C12.0789 28.3398 12.0789 28.3422 12.0797 28.3437C12.334 29.2978 13.2049 30 14.2391 30C14.6528 30 15.0408 29.888 15.3736 29.6921L15.4 29.6765L24.7188 24.2994L20.3572 19.5514Z" fill="#EA4335"/>
<path d="M28.7317 18.0555L28.7239 18.05L24.7006 15.718L20.168 19.7514L24.7169 24.2988L28.7185 21.9901C29.4198 21.6107 29.8965 20.8712 29.8965 20.0189C29.8965 19.1713 29.4268 18.4357 28.7317 18.0555Z" fill="#FBBC04"/>
<path d="M12.0762 11.6607C12.0264 11.8442 12 12.0371 12 12.2361V27.7632C12 27.9623 12.0264 28.1552 12.077 28.3379L20.6399 19.7757L12.0762 11.6607Z" fill="#4285F4"/>
<path d="M20.4187 20L24.7032 15.7162L15.3954 10.3197C15.0571 10.1167 14.6621 10.0001 14.2399 10.0001C13.2056 10.0001 12.3332 10.7038 12.0789 11.6587C12.0789 11.6595 12.0781 11.6602 12.0781 11.661L20.4187 20Z" fill="#34A853"/>
</svg>
