<svg width="41" height="41" viewBox="0 0 41 41" fill="none" xmlns="http://www.w3.org/2000/svg">
<g clip-path="url(#clip0_2643_1247)">
<path d="M20.5 41C9.1799 41 0 31.8201 0 20.5C0 9.1799 9.1799 0 20.5 0C31.8201 0 41 9.1799 41 20.5C41 31.8201 31.8201 41 20.5 41Z" fill="url(#paint0_linear_2643_1247)"/>
<path d="M20.5013 9.02834C24.2364 9.02834 24.6792 9.04064 26.1552 9.11034C27.5205 9.17184 28.2626 9.40144 28.7546 9.59414C29.4065 9.84834 29.8739 10.1517 30.3618 10.6396C30.8497 11.1275 31.1531 11.5949 31.4073 12.2468C31.6 12.7388 31.8255 13.4809 31.8911 14.8462C31.9567 16.3222 31.9731 16.765 31.9731 20.5001C31.9731 24.2352 31.9608 24.678 31.8911 26.154C31.8296 27.5193 31.6 28.2614 31.4073 28.7534C31.1531 29.4053 30.8497 29.8727 30.3618 30.3606C29.8739 30.8485 29.4065 31.1519 28.7546 31.4061C28.2626 31.5988 27.5205 31.8243 26.1552 31.8899C24.6792 31.9555 24.2364 31.9719 20.5013 31.9719C16.7662 31.9719 16.3234 31.9596 14.8474 31.8899C13.4821 31.8284 12.74 31.5988 12.248 31.4061C11.5961 31.1519 11.1287 30.8485 10.6408 30.3606C10.1529 29.8727 9.84951 29.4053 9.59531 28.7534C9.40261 28.2614 9.17711 27.5193 9.11151 26.154C9.04591 24.678 9.02951 24.2352 9.02951 20.5001C9.02951 16.765 9.04181 16.3222 9.11151 14.8462C9.17301 13.4809 9.40261 12.7388 9.59531 12.2468C9.84951 11.5949 10.1529 11.1275 10.6408 10.6396C11.1287 10.1517 11.5961 9.84834 12.248 9.59414C12.74 9.40144 13.4821 9.17594 14.8474 9.11034C16.3234 9.04064 16.7662 9.02834 20.5013 9.02834ZM20.5013 6.50684C16.7006 6.50684 16.225 6.52324 14.7326 6.59294C13.2443 6.66264 12.2275 6.89634 11.3337 7.24484C10.4153 7.59744 9.63221 8.07714 8.85731 8.85614C8.07831 9.63514 7.60271 10.4141 7.24191 11.3366C6.89751 12.2263 6.65971 13.2431 6.59001 14.7355C6.52031 16.2279 6.50391 16.7035 6.50391 20.5042C6.50391 24.3049 6.52031 24.7805 6.59001 26.2729C6.65971 27.7612 6.89341 28.778 7.24191 29.6718C7.59861 30.5861 8.07831 31.3692 8.85731 32.1441C9.63631 32.9231 10.4153 33.3987 11.3378 33.7595C12.2275 34.1039 13.2443 34.3417 14.7367 34.4114C16.2291 34.4811 16.7047 34.4975 20.5054 34.4975C24.3061 34.4975 24.7817 34.4811 26.2741 34.4114C27.7624 34.3417 28.7792 34.108 29.673 33.7595C30.5873 33.4028 31.3704 32.9231 32.1453 32.1441C32.9243 31.3651 33.3999 30.5861 33.7607 29.6636C34.1051 28.7739 34.3429 27.7571 34.4126 26.2647C34.4823 24.7723 34.4987 24.2967 34.4987 20.496C34.4987 16.6953 34.4823 16.2197 34.4126 14.7273C34.3429 13.239 34.1092 12.2222 33.7607 11.3284C33.404 10.4141 32.9243 9.63104 32.1453 8.85614C31.3663 8.07714 30.5873 7.60154 29.6648 7.24074C28.7751 6.89634 27.7583 6.65854 26.2659 6.58884C24.7776 6.52324 24.302 6.50684 20.5013 6.50684Z" fill="white"/>
<path d="M20.4998 13.3125C16.531 13.3125 13.3125 16.531 13.3125 20.4998C13.3125 24.4686 16.531 27.6871 20.4998 27.6871C24.4686 27.6871 27.6871 24.4686 27.6871 20.4998C27.6871 16.531 24.4686 13.3125 20.4998 13.3125ZM20.4998 25.1656C17.925 25.1656 15.834 23.0787 15.834 20.4998C15.834 17.9209 17.925 15.834 20.4998 15.834C23.0746 15.834 25.1656 17.9209 25.1656 20.4998C25.1656 23.0787 23.0746 25.1656 20.4998 25.1656Z" fill="white"/>
<path d="M27.9701 14.7106C28.8985 14.7106 29.6511 13.958 29.6511 13.0296C29.6511 12.1012 28.8985 11.3486 27.9701 11.3486C27.0417 11.3486 26.2891 12.1012 26.2891 13.0296C26.2891 13.958 27.0417 14.7106 27.9701 14.7106Z" fill="white"/>
</g>
<defs>
<linearGradient id="paint0_linear_2643_1247" x1="6.00431" y1="34.9957" x2="34.9957" y2="6.00431" gradientUnits="userSpaceOnUse">
<stop stop-color="#FFD521"/>
<stop offset="0.0551048" stop-color="#FFD020"/>
<stop offset="0.1241" stop-color="#FEC01E"/>
<stop offset="0.2004" stop-color="#FCA71B"/>
<stop offset="0.2821" stop-color="#FA8316"/>
<stop offset="0.3681" stop-color="#F85510"/>
<stop offset="0.4563" stop-color="#F51E09"/>
<stop offset="0.5" stop-color="#F30005"/>
<stop offset="0.5035" stop-color="#F20007"/>
<stop offset="0.5966" stop-color="#E1003B"/>
<stop offset="0.6879" stop-color="#D30067"/>
<stop offset="0.7757" stop-color="#C70088"/>
<stop offset="0.8589" stop-color="#BF00A0"/>
<stop offset="0.9357" stop-color="#BB00AF"/>
<stop offset="1" stop-color="#B900B4"/>
</linearGradient>
<clipPath id="clip0_2643_1247">
<rect width="41" height="41" fill="white"/>
</clipPath>
</defs>
</svg>
