<svg width="41" height="41" viewBox="0 0 41 41" fill="none" xmlns="http://www.w3.org/2000/svg">
<g clip-path="url(#clip0_2643_1259)">
<path d="M20.5 41C31.8218 41 41 31.8218 41 20.5C41 9.17816 31.8218 0 20.5 0C9.17816 0 0 9.17816 0 20.5C0 31.8218 9.17816 41 20.5 41Z" fill="#007BB5"/>
<path d="M14.0938 14.0938H8.96875V32.0312H14.0938V14.0938Z" fill="white"/>
<path d="M26.2643 14.0938C22.6884 14.0938 22.0734 15.3981 21.7812 16.6562V14.0938H16.6562V32.0312H21.7812V21.7812C21.7812 20.1195 22.682 19.2188 24.3438 19.2188C25.9658 19.2188 26.9062 20.1002 26.9062 21.7812V32.0312H32.0312V23.0625C32.0312 17.9375 31.3637 14.0938 26.2643 14.0938Z" fill="white"/>
<path d="M11.5312 12.8125C12.9465 12.8125 14.0938 11.6652 14.0938 10.25C14.0938 8.83477 12.9465 7.6875 11.5312 7.6875C10.116 7.6875 8.96875 8.83477 8.96875 10.25C8.96875 11.6652 10.116 12.8125 11.5312 12.8125Z" fill="white"/>
</g>
<defs>
<clipPath id="clip0_2643_1259">
<rect width="41" height="41" fill="white"/>
</clipPath>
</defs>
</svg>
